<?xml version="1.0" encoding="utf-8"?>
<!-- Generator: Adobe Illustrator 16.0.0, SVG Export Plug-In . SVG Version: 6.00 Build 0)  -->
<!DOCTYPE svg PUBLIC "-//W3C//DTD SVG 1.1//EN" "http://www.w3.org/Graphics/SVG/1.1/DTD/svg11.dtd">
<svg version="1.1" xmlns="http://www.w3.org/2000/svg" xmlns:xlink="http://www.w3.org/1999/xlink" x="0px" y="0px"
	 width="234.598px" height="276.891px" viewBox="0 0 234.598 276.891" enable-background="new 0 0 234.598 276.891"
	 xml:space="preserve">
<g id="Background">
</g>
<g id="Objects">
	<g>
		<text transform="matrix(1 0 0 1 589.478 -35.1929)"><tspan x="0" y="0" fill="#AE046D" font-family="'BebasNeueBold'" font-size="27.4384">spa</tspan><tspan x="41.761" y="0" fill="#929497" font-family="'BebasNeueRegular'" font-size="27.4384"> zone</tspan></text>
		<text transform="matrix(1 0 0 1 589.5029 -22.1221)" fill="#929497" font-family="'OpenSans'" font-size="8.7907">Lorem ipsum dolor</text>
		<g>
			<linearGradient id="SVGID_1_" gradientUnits="userSpaceOnUse" x1="648.0029" y1="-45.9961" x2="574.0037" y2="-238.9943">
				<stop  offset="0" style="stop-color:#87046D"/>
				<stop  offset="1" style="stop-color:#EB008B"/>
			</linearGradient>
			<path fill="url(#SVGID_1_)" d="M622.495-242.513c6.374,68.571-64.369,43.818-55.753,114.568
				C571.724-194.762,647.02-169.373,622.495-242.513z"/>
			<linearGradient id="SVGID_2_" gradientUnits="userSpaceOnUse" x1="636.0928" y1="-41.4287" x2="562.0929" y2="-234.4286">
				<stop  offset="0" style="stop-color:#87046D"/>
				<stop  offset="1" style="stop-color:#EB008B"/>
			</linearGradient>
			<path fill="url(#SVGID_2_)" d="M618.273-242.513c-24.04,61.15-72.771,27.709-80.783,98.531
				C557.82-207.826,618.769-175.349,618.273-242.513z"/>
			<linearGradient id="SVGID_3_" gradientUnits="userSpaceOnUse" x1="639.6338" y1="-62.9287" x2="572.9437" y2="-236.8639">
				<stop  offset="0" style="stop-color:#87046D"/>
				<stop  offset="1" style="stop-color:#EB008B"/>
			</linearGradient>
			<path fill="url(#SVGID_3_)" d="M643.856-171.419c-2.923-10.137,1.122-15.38,2.506-20.505c6.19-22.925-6.217-45.335-18.696-50.179
				c27.931,78.281-67.569,73.781-51.819,185.208c0,0,11.25-50.844,62.268-45.117c2.969,0.333,4.191-4.261,3.512-8.254
				c-0.688-3.999,1.653-8.097,2.964-8.543c1.316-0.459,1.907-1.068,1.907-1.068c0.725-3.283-0.57-6.381-0.57-6.381l2.056-1.7
				c2.837-2.276,2.208-5.604,2.208-5.604s-1.009-0.37-1.947-3.327c-0.936-2.958-1.006-4.826,2.945-6.85
				c5.212-2.662,6.579-7.001,6.579-7.001C653.567-152.395,646.776-161.275,643.856-171.419z"/>
		</g>
		<g opacity="0.1">
			<ellipse id="shadow_23_" opacity="0" fill="#F4F4F4" cx="608.968" cy="1.979" rx="97.968" ry="18.331"/>
			<ellipse opacity="0.0244" fill="#EEEEEE" cx="608.968" cy="1.979" rx="96.274" ry="17.931"/>
			<ellipse opacity="0.0488" fill="#E8E8E8" cx="608.968" cy="1.979" rx="94.58" ry="17.529"/>
			<ellipse opacity="0.0732" fill="#E2E2E2" cx="608.968" cy="1.979" rx="92.886" ry="17.129"/>
			<ellipse opacity="0.0976" fill="#DCDCDC" cx="608.968" cy="1.979" rx="91.192" ry="16.728"/>
			<ellipse opacity="0.122" fill="#D6D6D6" cx="608.968" cy="1.979" rx="89.498" ry="16.327"/>
			<ellipse opacity="0.1463" fill="#D0D0D0" cx="608.968" cy="1.979" rx="87.804" ry="15.926"/>
			<ellipse opacity="0.1707" fill="#CACACA" cx="608.968" cy="1.979" rx="86.11" ry="15.525"/>
			<ellipse opacity="0.1951" fill="#C4C4C4" cx="608.968" cy="1.979" rx="84.416" ry="15.125"/>
			<ellipse opacity="0.2195" fill="#BEBEBE" cx="608.968" cy="1.979" rx="82.722" ry="14.725"/>
			<ellipse opacity="0.2439" fill="#B8B8B8" cx="608.968" cy="1.979" rx="81.028" ry="14.324"/>
			<ellipse opacity="0.2683" fill="#B3B3B3" cx="608.968" cy="1.979" rx="79.334" ry="13.923"/>
			<ellipse opacity="0.2927" fill="#ADADAD" cx="608.968" cy="1.979" rx="77.64" ry="13.522"/>
			<ellipse opacity="0.3171" fill="#A7A7A7" cx="608.968" cy="1.979" rx="75.946" ry="13.122"/>
			<ellipse opacity="0.3415" fill="#A1A1A1" cx="608.968" cy="1.98" rx="74.251" ry="12.721"/>
			<ellipse opacity="0.3659" fill="#9B9B9B" cx="608.968" cy="1.979" rx="72.558" ry="12.32"/>
			<ellipse opacity="0.3902" fill="#959595" cx="608.968" cy="1.979" rx="70.864" ry="11.919"/>
			<ellipse opacity="0.4146" fill="#8F8F8F" cx="608.968" cy="1.98" rx="69.17" ry="11.519"/>
			<ellipse opacity="0.439" fill="#898989" cx="608.968" cy="1.98" rx="67.476" ry="11.117"/>
			<ellipse opacity="0.4634" fill="#838383" cx="608.968" cy="1.98" rx="65.781" ry="10.717"/>
			<ellipse opacity="0.4878" fill="#7D7D7D" cx="608.968" cy="1.979" rx="64.088" ry="10.316"/>
			<ellipse opacity="0.5122" fill="#777777" cx="608.968" cy="1.98" rx="62.394" ry="9.916"/>
			<ellipse opacity="0.5366" fill="#717171" cx="608.968" cy="1.98" rx="60.7" ry="9.515"/>
			<ellipse opacity="0.561" fill="#6B6B6B" cx="608.968" cy="1.98" rx="59.006" ry="9.114"/>
			<ellipse opacity="0.5854" fill="#656565" cx="608.968" cy="1.98" rx="57.312" ry="8.714"/>
			<ellipse opacity="0.6098" fill="#5F5F5F" cx="608.968" cy="1.98" rx="55.618" ry="8.313"/>
			<ellipse opacity="0.6341" fill="#595959" cx="608.968" cy="1.98" rx="53.924" ry="7.912"/>
			<ellipse opacity="0.6585" fill="#535353" cx="608.968" cy="1.98" rx="52.23" ry="7.512"/>
			<ellipse opacity="0.6829" fill="#4D4D4D" cx="608.968" cy="1.98" rx="50.535" ry="7.111"/>
			<ellipse opacity="0.7073" fill="#474747" cx="608.968" cy="1.98" rx="48.842" ry="6.71"/>
			<ellipse opacity="0.7317" fill="#414141" cx="608.968" cy="1.98" rx="47.147" ry="6.31"/>
			<ellipse opacity="0.7561" fill="#3C3C3C" cx="608.968" cy="1.98" rx="45.454" ry="5.909"/>
			<ellipse opacity="0.7805" fill="#363636" cx="608.968" cy="1.98" rx="43.76" ry="5.508"/>
			<ellipse opacity="0.8049" fill="#303030" cx="608.968" cy="1.98" rx="42.065" ry="5.107"/>
			<ellipse opacity="0.8293" fill="#2A2A2A" cx="608.968" cy="1.98" rx="40.372" ry="4.707"/>
			<ellipse opacity="0.8537" fill="#242424" cx="608.968" cy="1.98" rx="38.678" ry="4.306"/>
			<ellipse opacity="0.878" fill="#1E1E1E" cx="608.968" cy="1.98" rx="36.984" ry="3.905"/>
			<ellipse opacity="0.9024" fill="#181818" cx="608.968" cy="1.98" rx="35.29" ry="3.505"/>
			<ellipse opacity="0.9268" fill="#121212" cx="608.968" cy="1.981" rx="33.596" ry="3.104"/>
			<ellipse opacity="0.9512" fill="#0C0C0C" cx="608.968" cy="1.981" rx="31.902" ry="2.703"/>
			<ellipse opacity="0.9756" fill="#060606" cx="608.968" cy="1.981" rx="30.208" ry="2.302"/>
			<ellipse id="shadow_22_" cx="608.968" cy="1.981" rx="28.514" ry="1.902"/>
		</g>
	</g>
	<g>
		<g>
			<linearGradient id="SVGID_4_" gradientUnits="userSpaceOnUse" x1="792.9355" y1="-69.9839" x2="884.9355" y2="-250.9834">
				<stop  offset="0" style="stop-color:#B063C6"/>
				<stop  offset="0.0738" style="stop-color:#A46FC7"/>
				<stop  offset="0.3678" style="stop-color:#779BCA"/>
				<stop  offset="0.6306" style="stop-color:#57BBCC"/>
				<stop  offset="0.8503" style="stop-color:#43CFCE"/>
				<stop  offset="1" style="stop-color:#3CD6CE"/>
			</linearGradient>
			<path fill="url(#SVGID_4_)" d="M878.204-92.819c-25.749-72.985,76.976-80.405,11.276-145.97
				c34.968,52.464-14.404,70.07-23.324,102.574c-0.791-1.981-1.703-3.951-2.715-5.911c13.987-37.433,62.194-53.575,11.968-103.699
				c24.731,46.476-6.794,65.49-20.103,90.658c-21.254-29.631-56.918-57.185-39.534-85.19c-30.131,8.694-16.228,45.035-16.162,46.667
				c-2.807,2.054-6.604,2.697-11.096-0.832c2.077,3.334,6.548,5.536,10.631,5.276c-2.074,8.507-10.445,16.215-16.254,20.846
				c-2.245,1.791,3.846,7.945,12.943,10.085c5.161,1.214,3.875,3.317,2.566,5.363c-0.866,1.353-4.506,2.703-4.002,5.234
				c0.502,2.53,4.462,4.055,4.462,4.055s-5.084,4.372-1.364,8c3.729,3.637,3.528,4.022,2.041,11.423
				c-1.505,7.489,7.107,11.513,19.139,8.061c5.516-1.582,16.42-3.897,26.682-6.785c0,0,12.163,31.847-20.199,56.634
				c20.383-11.676,32.537-22.878,38.854-33.696c0.042,0.058,0.078,0.113,0.121,0.17c-0.028-0.08-0.053-0.158-0.081-0.237
				c1.94-3.335,3.321-6.633,4.222-9.897C870.417-104.711,873.644-99.021,878.204-92.819z"/>
			<g>
				<text transform="matrix(1 0 0 1 777.9946 -36.5996)"><tspan x="0" y="0" fill="#929497" font-family="'BebasNeueRegular'" font-size="27.4384">woman </tspan><tspan x="96.527" y="0" fill="#EB008B" font-family="'BebasNeueBold'" font-size="27.4384">beauty</tspan></text>
			</g>
			<text transform="matrix(1 0 0 1 805.0195 -23.8271)" fill="#929497" font-family="'OpenSans'" font-size="8.4426">Lorem ipsum dolor</text>
		</g>
		<g opacity="0.1">
			<ellipse id="shadow_21_" opacity="0" fill="#F4F4F4" cx="846.598" cy="1.979" rx="107.598" ry="18.331"/>
			<ellipse opacity="0.0244" fill="#EEEEEE" cx="846.598" cy="1.979" rx="105.737" ry="17.931"/>
			<ellipse opacity="0.0488" fill="#E8E8E8" cx="846.598" cy="1.979" rx="103.877" ry="17.529"/>
			<ellipse opacity="0.0732" fill="#E2E2E2" cx="846.598" cy="1.979" rx="102.016" ry="17.129"/>
			<ellipse opacity="0.0976" fill="#DCDCDC" cx="846.598" cy="1.979" rx="100.155" ry="16.728"/>
			<ellipse opacity="0.122" fill="#D6D6D6" cx="846.598" cy="1.979" rx="98.295" ry="16.327"/>
			<ellipse opacity="0.1463" fill="#D0D0D0" cx="846.598" cy="1.979" rx="96.434" ry="15.926"/>
			<ellipse opacity="0.1707" fill="#CACACA" cx="846.598" cy="1.979" rx="94.574" ry="15.525"/>
			<ellipse opacity="0.1951" fill="#C4C4C4" cx="846.597" cy="1.979" rx="92.713" ry="15.125"/>
			<ellipse opacity="0.2195" fill="#BEBEBE" cx="846.598" cy="1.979" rx="90.853" ry="14.725"/>
			<ellipse opacity="0.2439" fill="#B8B8B8" cx="846.598" cy="1.979" rx="88.993" ry="14.324"/>
			<ellipse opacity="0.2683" fill="#B3B3B3" cx="846.598" cy="1.979" rx="87.132" ry="13.923"/>
			<ellipse opacity="0.2927" fill="#ADADAD" cx="846.598" cy="1.979" rx="85.271" ry="13.522"/>
			<ellipse opacity="0.3171" fill="#A7A7A7" cx="846.597" cy="1.979" rx="83.411" ry="13.122"/>
			<ellipse opacity="0.3415" fill="#A1A1A1" cx="846.598" cy="1.98" rx="81.551" ry="12.721"/>
			<ellipse opacity="0.3659" fill="#9B9B9B" cx="846.597" cy="1.979" rx="79.69" ry="12.32"/>
			<ellipse opacity="0.3902" fill="#959595" cx="846.597" cy="1.979" rx="77.83" ry="11.919"/>
			<ellipse opacity="0.4146" fill="#8F8F8F" cx="846.598" cy="1.98" rx="75.969" ry="11.519"/>
			<ellipse opacity="0.439" fill="#898989" cx="846.598" cy="1.98" rx="74.108" ry="11.117"/>
			<ellipse opacity="0.4634" fill="#838383" cx="846.598" cy="1.98" rx="72.248" ry="10.717"/>
			<ellipse opacity="0.4878" fill="#7D7D7D" cx="846.597" cy="1.979" rx="70.387" ry="10.316"/>
			<ellipse opacity="0.5122" fill="#777777" cx="846.597" cy="1.98" rx="68.527" ry="9.916"/>
			<ellipse opacity="0.5366" fill="#717171" cx="846.598" cy="1.98" rx="66.666" ry="9.515"/>
			<ellipse opacity="0.561" fill="#6B6B6B" cx="846.598" cy="1.98" rx="64.806" ry="9.114"/>
			<ellipse opacity="0.5854" fill="#656565" cx="846.598" cy="1.98" rx="62.945" ry="8.714"/>
			<ellipse opacity="0.6098" fill="#5F5F5F" cx="846.598" cy="1.98" rx="61.085" ry="8.313"/>
			<ellipse opacity="0.6341" fill="#595959" cx="846.598" cy="1.98" rx="59.224" ry="7.912"/>
			<ellipse opacity="0.6585" fill="#535353" cx="846.597" cy="1.98" rx="57.364" ry="7.512"/>
			<ellipse opacity="0.6829" fill="#4D4D4D" cx="846.597" cy="1.98" rx="55.503" ry="7.111"/>
			<ellipse opacity="0.7073" fill="#474747" cx="846.598" cy="1.98" rx="53.643" ry="6.71"/>
			<ellipse opacity="0.7317" fill="#414141" cx="846.598" cy="1.98" rx="51.782" ry="6.31"/>
			<ellipse opacity="0.7561" fill="#3C3C3C" cx="846.598" cy="1.98" rx="49.922" ry="5.909"/>
			<ellipse opacity="0.7805" fill="#363636" cx="846.597" cy="1.98" rx="48.061" ry="5.508"/>
			<ellipse opacity="0.8049" fill="#303030" cx="846.598" cy="1.98" rx="46.201" ry="5.107"/>
			<ellipse opacity="0.8293" fill="#2A2A2A" cx="846.598" cy="1.98" rx="44.34" ry="4.707"/>
			<ellipse opacity="0.8537" fill="#242424" cx="846.598" cy="1.98" rx="42.479" ry="4.306"/>
			<ellipse opacity="0.878" fill="#1E1E1E" cx="846.598" cy="1.98" rx="40.619" ry="3.905"/>
			<ellipse opacity="0.9024" fill="#181818" cx="846.598" cy="1.98" rx="38.759" ry="3.505"/>
			<ellipse opacity="0.9268" fill="#121212" cx="846.598" cy="1.981" rx="36.898" ry="3.104"/>
			<ellipse opacity="0.9512" fill="#0C0C0C" cx="846.598" cy="1.981" rx="35.037" ry="2.703"/>
			<ellipse opacity="0.9756" fill="#060606" cx="846.598" cy="1.981" rx="33.177" ry="2.302"/>
			<ellipse id="shadow_20_" cx="846.598" cy="1.981" rx="31.316" ry="1.902"/>
		</g>
	</g>
	<g>
		<g>
			<g>
				
					<linearGradient id="SVGID_5_" gradientUnits="userSpaceOnUse" x1="1095.8623" y1="-51.6328" x2="996.6526" y2="-198.4633" gradientTransform="matrix(0.9407 0.3392 -0.3392 0.9407 13.0325 -378.7584)">
					<stop  offset="0" style="stop-color:#87046D"/>
					<stop  offset="0.1151" style="stop-color:#8C0B6B"/>
					<stop  offset="0.2839" style="stop-color:#991F66"/>
					<stop  offset="0.486" style="stop-color:#AF3F5D"/>
					<stop  offset="0.7138" style="stop-color:#CD6C52"/>
					<stop  offset="0.9601" style="stop-color:#F3A543"/>
					<stop  offset="1" style="stop-color:#FAAF40"/>
				</linearGradient>
				<path fill="url(#SVGID_5_)" d="M1063.612-129.09c-14.729-6.339-18.128-0.801-25.178-2.16c-7.103-1.368-5.434-8.441-5.434-8.441
					c1.888-5.925-4.181-4.996-3.714-8.192c0.441-3.025,9.684-1.62,9.684-1.62c-2.751-2.05-7.603-1.557-7.603-1.557
					c-4.779-0.227-1.586-4.936-1.586-4.936c5.657-9.988-12.31-5.621-5.554-15.713c1.977-2.953,10.001-10.104,10.001-10.104
					c4.604-4.822,0.734-13.448,0.734-13.448c-3.262-16.881,11.208-26.248,11.208-26.248c-0.642-4.095,0.101-6.346,0.101-6.346
					c-15.714,9.657-28.385,24.512-35.127,43.214c-15.795,43.806,5.914,91.122,49.721,106.917c1.841,0.664,2.563,0.983,5.549,1.789
					C1100.65-113.021,1063.612-129.09,1063.612-129.09z"/>
				
					<linearGradient id="SVGID_6_" gradientUnits="userSpaceOnUse" x1="1168.8896" y1="-97.5698" x2="1068.5225" y2="-246.1134" gradientTransform="matrix(0.9407 0.3392 -0.3392 0.9407 13.0325 -378.7584)">
					<stop  offset="0" style="stop-color:#87046D"/>
					<stop  offset="0.1151" style="stop-color:#8C0B6B"/>
					<stop  offset="0.2839" style="stop-color:#991F66"/>
					<stop  offset="0.486" style="stop-color:#AF3F5D"/>
					<stop  offset="0.7138" style="stop-color:#CD6C52"/>
					<stop  offset="0.9601" style="stop-color:#F3A543"/>
					<stop  offset="1" style="stop-color:#FAAF40"/>
				</linearGradient>
				<path fill="url(#SVGID_6_)" d="M1051.956-228.274c79.975,6.535,42.804,99.152,123.695,56.646
					C1107.303-173.054,1130.265-243.406,1051.956-228.274z"/>
				
					<linearGradient id="SVGID_7_" gradientUnits="userSpaceOnUse" x1="1151.4121" y1="-94.6021" x2="1054.915" y2="-237.4179" gradientTransform="matrix(0.9407 0.3392 -0.3392 0.9407 13.0325 -378.7584)">
					<stop  offset="0" style="stop-color:#87046D"/>
					<stop  offset="0.1151" style="stop-color:#8C0B6B"/>
					<stop  offset="0.2839" style="stop-color:#991F66"/>
					<stop  offset="0.486" style="stop-color:#AF3F5D"/>
					<stop  offset="0.7138" style="stop-color:#CD6C52"/>
					<stop  offset="0.9601" style="stop-color:#F3A543"/>
					<stop  offset="1" style="stop-color:#FAAF40"/>
				</linearGradient>
				<path fill="url(#SVGID_7_)" d="M1049.101-223.796c68.198,26.087,22.475,91.465,106.497,88.724
					C1079.598-170.739,1125.654-210.676,1049.101-223.796z"/>
			</g>
			<text transform="matrix(1 0 0 1 1026.502 -36.5996)"><tspan x="0" y="0" fill="#F6931E" font-family="'BebasNeueRegular'" font-size="27.4384">BEAUTY</tspan><tspan x="95.512" y="0" fill="#929497" font-family="'BebasNeueRegular'" font-size="27.4384"> SALON</tspan></text>
			<text transform="matrix(1 0 0 1 1047.6328 -23.8271)" fill="#929497" font-family="'OpenSans'" font-size="8.4426">Lorem ipsum dolor</text>
		</g>
		<g opacity="0.1">
			<ellipse id="shadow_19_" opacity="0" fill="#F4F4F4" cx="1090.598" cy="1.979" rx="107.598" ry="18.331"/>
			<ellipse opacity="0.0244" fill="#EEEEEE" cx="1090.598" cy="1.979" rx="105.737" ry="17.931"/>
			<ellipse opacity="0.0488" fill="#E8E8E8" cx="1090.597" cy="1.979" rx="103.876" ry="17.529"/>
			<ellipse opacity="0.0732" fill="#E2E2E2" cx="1090.598" cy="1.979" rx="102.016" ry="17.129"/>
			<ellipse opacity="0.0976" fill="#DCDCDC" cx="1090.598" cy="1.979" rx="100.155" ry="16.728"/>
			<ellipse opacity="0.122" fill="#D6D6D6" cx="1090.598" cy="1.979" rx="98.295" ry="16.327"/>
			<ellipse opacity="0.1463" fill="#D0D0D0" cx="1090.598" cy="1.979" rx="96.435" ry="15.926"/>
			<ellipse opacity="0.1707" fill="#CACACA" cx="1090.598" cy="1.979" rx="94.574" ry="15.525"/>
			<ellipse opacity="0.1951" fill="#C4C4C4" cx="1090.597" cy="1.979" rx="92.713" ry="15.125"/>
			<ellipse opacity="0.2195" fill="#BEBEBE" cx="1090.598" cy="1.979" rx="90.854" ry="14.725"/>
			<ellipse opacity="0.2439" fill="#B8B8B8" cx="1090.598" cy="1.979" rx="88.993" ry="14.324"/>
			<ellipse opacity="0.2683" fill="#B3B3B3" cx="1090.598" cy="1.979" rx="87.132" ry="13.923"/>
			<ellipse opacity="0.2927" fill="#ADADAD" cx="1090.598" cy="1.979" rx="85.271" ry="13.522"/>
			<ellipse opacity="0.3171" fill="#A7A7A7" cx="1090.598" cy="1.979" rx="83.411" ry="13.122"/>
			<ellipse opacity="0.3415" fill="#A1A1A1" cx="1090.598" cy="1.98" rx="81.55" ry="12.721"/>
			<ellipse opacity="0.3659" fill="#9B9B9B" cx="1090.598" cy="1.979" rx="79.689" ry="12.32"/>
			<ellipse opacity="0.3902" fill="#959595" cx="1090.598" cy="1.979" rx="77.829" ry="11.919"/>
			<ellipse opacity="0.4146" fill="#8F8F8F" cx="1090.598" cy="1.98" rx="75.969" ry="11.519"/>
			<ellipse opacity="0.439" fill="#898989" cx="1090.598" cy="1.98" rx="74.108" ry="11.117"/>
			<ellipse opacity="0.4634" fill="#838383" cx="1090.598" cy="1.98" rx="72.248" ry="10.717"/>
			<ellipse opacity="0.4878" fill="#7D7D7D" cx="1090.597" cy="1.979" rx="70.387" ry="10.316"/>
			<ellipse opacity="0.5122" fill="#777777" cx="1090.598" cy="1.98" rx="68.527" ry="9.916"/>
			<ellipse opacity="0.5366" fill="#717171" cx="1090.598" cy="1.98" rx="66.666" ry="9.515"/>
			<ellipse opacity="0.561" fill="#6B6B6B" cx="1090.598" cy="1.98" rx="64.806" ry="9.114"/>
			<ellipse opacity="0.5854" fill="#656565" cx="1090.598" cy="1.98" rx="62.945" ry="8.714"/>
			<ellipse opacity="0.6098" fill="#5F5F5F" cx="1090.598" cy="1.98" rx="61.085" ry="8.313"/>
			<ellipse opacity="0.6341" fill="#595959" cx="1090.598" cy="1.98" rx="59.225" ry="7.912"/>
			<ellipse opacity="0.6585" fill="#535353" cx="1090.598" cy="1.98" rx="57.363" ry="7.512"/>
			<ellipse opacity="0.6829" fill="#4D4D4D" cx="1090.598" cy="1.98" rx="55.503" ry="7.111"/>
			<ellipse opacity="0.7073" fill="#474747" cx="1090.598" cy="1.98" rx="53.643" ry="6.71"/>
			<ellipse opacity="0.7317" fill="#414141" cx="1090.597" cy="1.98" rx="51.782" ry="6.31"/>
			<ellipse opacity="0.7561" fill="#3C3C3C" cx="1090.598" cy="1.98" rx="49.922" ry="5.909"/>
			<ellipse opacity="0.7805" fill="#363636" cx="1090.597" cy="1.98" rx="48.061" ry="5.508"/>
			<ellipse opacity="0.8049" fill="#303030" cx="1090.598" cy="1.98" rx="46.2" ry="5.107"/>
			<ellipse opacity="0.8293" fill="#2A2A2A" cx="1090.598" cy="1.98" rx="44.34" ry="4.707"/>
			<ellipse opacity="0.8537" fill="#242424" cx="1090.598" cy="1.98" rx="42.479" ry="4.306"/>
			<ellipse opacity="0.878" fill="#1E1E1E" cx="1090.598" cy="1.98" rx="40.619" ry="3.905"/>
			<ellipse opacity="0.9024" fill="#181818" cx="1090.598" cy="1.98" rx="38.759" ry="3.505"/>
			<ellipse opacity="0.9268" fill="#121212" cx="1090.597" cy="1.981" rx="36.898" ry="3.104"/>
			<ellipse opacity="0.9512" fill="#0C0C0C" cx="1090.597" cy="1.981" rx="35.038" ry="2.703"/>
			<ellipse opacity="0.9756" fill="#060606" cx="1090.598" cy="1.981" rx="33.177" ry="2.302"/>
			<ellipse id="shadow_18_" cx="1090.598" cy="1.981" rx="31.316" ry="1.902"/>
		</g>
	</g>
	<g>
		<g>
			<text transform="matrix(1 0 0 1 54.4453 207.8906)"><tspan x="0" y="0" fill="#C14096" font-family="'BebasNeueBold'" font-size="27.4384">Beauty</tspan><tspan x="83.082" y="0" fill="#929497" font-family="'BebasNeueRegular'" font-size="27.4384"> SALON</tspan></text>
			<text transform="matrix(1 0 0 1 67.5762 220.6631)" fill="#929497" font-family="'OpenSans'" font-size="8.4426">SKIN CLICIC CENTER</text>
			<g>
				<linearGradient id="SVGID_8_" gradientUnits="userSpaceOnUse" x1="71.5112" y1="177.9277" x2="71.5112" y2="3.8225">
					<stop  offset="0" style="stop-color:#C14096"/>
					<stop  offset="0.0709" style="stop-color:#BA4299"/>
					<stop  offset="0.175" style="stop-color:#A649A3"/>
					<stop  offset="0.2995" style="stop-color:#8654B2"/>
					<stop  offset="0.4314" style="stop-color:#5C63C6"/>
				</linearGradient>
				<path fill="url(#SVGID_8_)" d="M64.303,36.865c35.927,63.57-45.048,81.573,18.817,137.573
					C37.264,108.595,122.179,81.429,64.303,36.865z"/>
				<linearGradient id="SVGID_9_" gradientUnits="userSpaceOnUse" x1="123.1196" y1="177.9277" x2="123.1196" y2="3.8219">
					<stop  offset="0" style="stop-color:#C14096"/>
					<stop  offset="0.0709" style="stop-color:#BA4299"/>
					<stop  offset="0.175" style="stop-color:#A649A3"/>
					<stop  offset="0.2995" style="stop-color:#8654B2"/>
					<stop  offset="0.4314" style="stop-color:#5C63C6"/>
				</linearGradient>
				<path fill="url(#SVGID_9_)" d="M120.602,7.147c13.994,13.534,4.137,38.742,4.082,40.095c2.808,2.054,6.506,2.697,10.998-0.832
					c-2.076,3.335-6.597,5.536-10.68,5.276c2.074,8.507,10.42,16.215,16.23,20.846c2.244,1.791-3.859,7.945-12.956,10.086
					c-5.161,1.214-3.881,3.316-2.573,5.363c0.866,1.353,4.504,2.702,4,5.234c-0.502,2.529-4.463,4.055-4.463,4.055
					s5.083,4.372,1.363,7.999c-3.729,3.638-3.529,4.022-2.041,11.423c1.506,7.489-7.107,11.514-19.139,8.062
					c-5.517-1.582-16.421-3.897-26.682-6.785c0,0-11.135,29.4,16.587,53.677c41.97-6.2,74.378-42.371,74.378-86.065
					C169.707,51.037,149.6,21.195,120.602,7.147z"/>
				<linearGradient id="SVGID_10_" gradientUnits="userSpaceOnUse" x1="120.5996" y1="7.1475" x2="120.5996" y2="7.1436">
					<stop  offset="0" style="stop-color:#C14096"/>
					<stop  offset="0.0709" style="stop-color:#BA4299"/>
					<stop  offset="0.175" style="stop-color:#A649A3"/>
					<stop  offset="0.2995" style="stop-color:#8654B2"/>
					<stop  offset="0.4314" style="stop-color:#5C63C6"/>
				</linearGradient>
				<polygon fill="url(#SVGID_10_)" points="120.598,7.146 120.602,7.147 120.598,7.144 				"/>
			</g>
		</g>
		<g opacity="0.1">
			<ellipse id="shadow_17_" opacity="0" fill="#F4F4F4" cx="107.598" cy="248.979" rx="107.598" ry="18.331"/>
			<ellipse opacity="0.0244" fill="#EEEEEE" cx="107.598" cy="248.979" rx="105.737" ry="17.931"/>
			<ellipse opacity="0.0488" fill="#E8E8E8" cx="107.598" cy="248.979" rx="103.877" ry="17.53"/>
			<ellipse opacity="0.0732" fill="#E2E2E2" cx="107.598" cy="248.979" rx="102.016" ry="17.129"/>
			<ellipse opacity="0.0976" fill="#DCDCDC" cx="107.597" cy="248.979" rx="100.156" ry="16.729"/>
			<ellipse opacity="0.122" fill="#D6D6D6" cx="107.598" cy="248.979" rx="98.295" ry="16.328"/>
			<ellipse opacity="0.1463" fill="#D0D0D0" cx="107.598" cy="248.979" rx="96.435" ry="15.928"/>
			<ellipse opacity="0.1707" fill="#CACACA" cx="107.598" cy="248.979" rx="94.574" ry="15.526"/>
			<ellipse opacity="0.1951" fill="#C4C4C4" cx="107.598" cy="248.979" rx="92.714" ry="15.125"/>
			<ellipse opacity="0.2195" fill="#BEBEBE" cx="107.598" cy="248.979" rx="90.853" ry="14.725"/>
			<ellipse opacity="0.2439" fill="#B8B8B8" cx="107.598" cy="248.979" rx="88.993" ry="14.323"/>
			<ellipse opacity="0.2683" fill="#B3B3B3" cx="107.598" cy="248.979" rx="87.132" ry="13.924"/>
			<ellipse opacity="0.2927" fill="#ADADAD" cx="107.598" cy="248.979" rx="85.271" ry="13.523"/>
			<ellipse opacity="0.3171" fill="#A7A7A7" cx="107.598" cy="248.979" rx="83.411" ry="13.123"/>
			<ellipse opacity="0.3415" fill="#A1A1A1" cx="107.598" cy="248.979" rx="81.55" ry="12.722"/>
			<ellipse opacity="0.3659" fill="#9B9B9B" cx="107.597" cy="248.979" rx="79.69" ry="12.32"/>
			<ellipse opacity="0.3902" fill="#959595" cx="107.598" cy="248.979" rx="77.829" ry="11.921"/>
			<ellipse opacity="0.4146" fill="#8F8F8F" cx="107.598" cy="248.979" rx="75.969" ry="11.519"/>
			<ellipse opacity="0.439" fill="#898989" cx="107.598" cy="248.979" rx="74.108" ry="11.118"/>
			<ellipse opacity="0.4634" fill="#838383" cx="107.598" cy="248.979" rx="72.248" ry="10.718"/>
			<ellipse opacity="0.4878" fill="#7D7D7D" cx="107.597" cy="248.979" rx="70.387" ry="10.317"/>
			<ellipse opacity="0.5122" fill="#777777" cx="107.598" cy="248.979" rx="68.526" ry="9.917"/>
			<ellipse opacity="0.5366" fill="#717171" cx="107.598" cy="248.979" rx="66.666" ry="9.516"/>
			<ellipse opacity="0.561" fill="#6B6B6B" cx="107.598" cy="248.979" rx="64.806" ry="9.115"/>
			<ellipse opacity="0.5854" fill="#656565" cx="107.598" cy="248.98" rx="62.945" ry="8.713"/>
			<ellipse opacity="0.6098" fill="#5F5F5F" cx="107.598" cy="248.979" rx="61.085" ry="8.313"/>
			<ellipse opacity="0.6341" fill="#595959" cx="107.598" cy="248.98" rx="59.224" ry="7.912"/>
			<ellipse opacity="0.6585" fill="#535353" cx="107.598" cy="248.979" rx="57.363" ry="7.513"/>
			<ellipse opacity="0.6829" fill="#4D4D4D" cx="107.598" cy="248.98" rx="55.503" ry="7.111"/>
			<ellipse opacity="0.7073" fill="#474747" cx="107.598" cy="248.98" rx="53.643" ry="6.71"/>
			<ellipse opacity="0.7317" fill="#414141" cx="107.598" cy="248.98" rx="51.782" ry="6.31"/>
			<ellipse opacity="0.7561" fill="#3C3C3C" cx="107.598" cy="248.98" rx="49.922" ry="5.909"/>
			<ellipse opacity="0.7805" fill="#363636" cx="107.598" cy="248.98" rx="48.061" ry="5.508"/>
			<ellipse opacity="0.8049" fill="#303030" cx="107.597" cy="248.98" rx="46.2" ry="5.107"/>
			<ellipse opacity="0.8293" fill="#2A2A2A" cx="107.598" cy="248.98" rx="44.34" ry="4.707"/>
			<ellipse opacity="0.8537" fill="#242424" cx="107.598" cy="248.98" rx="42.479" ry="4.307"/>
			<ellipse opacity="0.878" fill="#1E1E1E" cx="107.598" cy="248.98" rx="40.619" ry="3.905"/>
			<ellipse opacity="0.9024" fill="#181818" cx="107.598" cy="248.98" rx="38.759" ry="3.505"/>
			<ellipse opacity="0.9268" fill="#121212" cx="107.597" cy="248.98" rx="36.898" ry="3.104"/>
			<ellipse opacity="0.9512" fill="#0C0C0C" cx="107.597" cy="248.98" rx="35.037" ry="2.704"/>
			<ellipse opacity="0.9756" fill="#060606" cx="107.598" cy="248.98" rx="33.177" ry="2.304"/>
			<ellipse id="shadow_16_" cx="107.598" cy="248.98" rx="31.316" ry="1.902"/>
		</g>
	</g>
	<g>
		<g opacity="0.1">
			<ellipse id="shadow_15_" opacity="0" fill="#F4F4F4" cx="1081.598" cy="317.979" rx="107.598" ry="18.331"/>
			<ellipse opacity="0.0244" fill="#EEEEEE" cx="1081.598" cy="317.979" rx="105.737" ry="17.931"/>
			<ellipse opacity="0.0488" fill="#E8E8E8" cx="1081.597" cy="317.979" rx="103.876" ry="17.53"/>
			<ellipse opacity="0.0732" fill="#E2E2E2" cx="1081.598" cy="317.979" rx="102.016" ry="17.129"/>
			<ellipse opacity="0.0976" fill="#DCDCDC" cx="1081.597" cy="317.979" rx="100.156" ry="16.729"/>
			<ellipse opacity="0.122" fill="#D6D6D6" cx="1081.598" cy="317.979" rx="98.295" ry="16.328"/>
			<ellipse opacity="0.1463" fill="#D0D0D0" cx="1081.598" cy="317.979" rx="96.434" ry="15.928"/>
			<ellipse opacity="0.1707" fill="#CACACA" cx="1081.598" cy="317.979" rx="94.574" ry="15.526"/>
			<ellipse opacity="0.1951" fill="#C4C4C4" cx="1081.597" cy="317.979" rx="92.713" ry="15.125"/>
			<ellipse opacity="0.2195" fill="#BEBEBE" cx="1081.598" cy="317.979" rx="90.854" ry="14.725"/>
			<ellipse opacity="0.2439" fill="#B8B8B8" cx="1081.598" cy="317.979" rx="88.992" ry="14.323"/>
			<ellipse opacity="0.2683" fill="#B3B3B3" cx="1081.598" cy="317.979" rx="87.132" ry="13.924"/>
			<ellipse opacity="0.2927" fill="#ADADAD" cx="1081.598" cy="317.979" rx="85.271" ry="13.523"/>
			<ellipse opacity="0.3171" fill="#A7A7A7" cx="1081.598" cy="317.979" rx="83.411" ry="13.123"/>
			<ellipse opacity="0.3415" fill="#A1A1A1" cx="1081.598" cy="317.979" rx="81.551" ry="12.722"/>
			<ellipse opacity="0.3659" fill="#9B9B9B" cx="1081.598" cy="317.979" rx="79.689" ry="12.32"/>
			<ellipse opacity="0.3902" fill="#959595" cx="1081.598" cy="317.979" rx="77.829" ry="11.921"/>
			<ellipse opacity="0.4146" fill="#8F8F8F" cx="1081.598" cy="317.979" rx="75.969" ry="11.519"/>
			<ellipse opacity="0.439" fill="#898989" cx="1081.598" cy="317.979" rx="74.108" ry="11.118"/>
			<ellipse opacity="0.4634" fill="#838383" cx="1081.598" cy="317.979" rx="72.248" ry="10.718"/>
			<ellipse opacity="0.4878" fill="#7D7D7D" cx="1081.597" cy="317.979" rx="70.387" ry="10.317"/>
			<ellipse opacity="0.5122" fill="#777777" cx="1081.598" cy="317.979" rx="68.527" ry="9.917"/>
			<ellipse opacity="0.5366" fill="#717171" cx="1081.598" cy="317.979" rx="66.666" ry="9.516"/>
			<ellipse opacity="0.561" fill="#6B6B6B" cx="1081.598" cy="317.979" rx="64.806" ry="9.115"/>
			<ellipse opacity="0.5854" fill="#656565" cx="1081.598" cy="317.98" rx="62.945" ry="8.713"/>
			<ellipse opacity="0.6098" fill="#5F5F5F" cx="1081.598" cy="317.979" rx="61.085" ry="8.313"/>
			<ellipse opacity="0.6341" fill="#595959" cx="1081.597" cy="317.98" rx="59.224" ry="7.912"/>
			<ellipse opacity="0.6585" fill="#535353" cx="1081.598" cy="317.979" rx="57.363" ry="7.513"/>
			<ellipse opacity="0.6829" fill="#4D4D4D" cx="1081.598" cy="317.98" rx="55.503" ry="7.111"/>
			<ellipse opacity="0.7073" fill="#474747" cx="1081.598" cy="317.98" rx="53.643" ry="6.71"/>
			<ellipse opacity="0.7317" fill="#414141" cx="1081.598" cy="317.98" rx="51.782" ry="6.31"/>
			<ellipse opacity="0.7561" fill="#3C3C3C" cx="1081.598" cy="317.98" rx="49.922" ry="5.909"/>
			<ellipse opacity="0.7805" fill="#363636" cx="1081.597" cy="317.98" rx="48.061" ry="5.508"/>
			<ellipse opacity="0.8049" fill="#303030" cx="1081.598" cy="317.98" rx="46.201" ry="5.107"/>
			<ellipse opacity="0.8293" fill="#2A2A2A" cx="1081.598" cy="317.98" rx="44.34" ry="4.707"/>
			<ellipse opacity="0.8537" fill="#242424" cx="1081.598" cy="317.98" rx="42.479" ry="4.307"/>
			<ellipse opacity="0.878" fill="#1E1E1E" cx="1081.598" cy="317.98" rx="40.619" ry="3.905"/>
			<ellipse opacity="0.9024" fill="#181818" cx="1081.598" cy="317.98" rx="38.759" ry="3.505"/>
			<ellipse opacity="0.9268" fill="#121212" cx="1081.598" cy="317.98" rx="36.897" ry="3.104"/>
			<ellipse opacity="0.9512" fill="#0C0C0C" cx="1081.598" cy="317.98" rx="35.037" ry="2.704"/>
			<ellipse opacity="0.9756" fill="#060606" cx="1081.598" cy="317.98" rx="33.177" ry="2.304"/>
			<ellipse id="shadow_14_" cx="1081.598" cy="317.98" rx="31.316" ry="1.902"/>
		</g>
		<g>
			<g>
				<text transform="matrix(1 0 0 1 1038.502 276.8906)"><tspan x="0" y="0" fill="#5C63C6" font-family="'BebasNeueRegular'" font-size="27.4384">hair</tspan><tspan x="46.59" y="0" fill="#929497" font-family="'BebasNeueRegular'" font-size="27.4384"> care</tspan></text>
			</g>
			<text transform="matrix(1 0 0 1 1044.6328 289.6631)" fill="#929497" font-family="'OpenSans'" font-size="8.4426">Lorem ipsum dolor</text>
			<g>
				<linearGradient id="SVGID_11_" gradientUnits="userSpaceOnUse" x1="1034.9473" y1="242.875" x2="1128.454" y2="66.2514">
					<stop  offset="0" style="stop-color:#B063C6"/>
					<stop  offset="0.0738" style="stop-color:#A46FC7"/>
					<stop  offset="0.3678" style="stop-color:#779BCA"/>
					<stop  offset="0.6306" style="stop-color:#57BBCC"/>
					<stop  offset="0.8503" style="stop-color:#43CFCE"/>
					<stop  offset="1" style="stop-color:#3CD6CE"/>
				</linearGradient>
				<path fill="url(#SVGID_11_)" d="M1063.548,86.962c-17.828,11.081-14.861,35.953-12.534,47.068c0,0-3.188,1.121-7.066-1.896
					c0,0,1.034,2.24,4.911,3.791c0,0-3.446,0.69-5.427,0c0,0,3.359,1.896,7.324,1.809c0,0,0.688,8.273-7.324,16.287
					c-8.015,8.012,10.942,5.342,4.996,15.509c0,0-2.584,3.965,3.275,6.377c0,0-3.721,2.853-0.259,4.653
					c6.463,3.359-0.711,14.192,7.928,17.751c11.719,4.824,22.23-9.652,34.639-2.845c0,0,2.296,32.094-29.577,41.079
					c0,0-27.114,6.39-46.414-26.155c33.71,59.698,75.991,22.266,75.991,22.266C1153.173,178.557,1035.191,150.749,1063.548,86.962z"
					/>
				<linearGradient id="SVGID_12_" gradientUnits="userSpaceOnUse" x1="1048.957" y1="250.292" x2="1142.4639" y2="73.6681">
					<stop  offset="0" style="stop-color:#B063C6"/>
					<stop  offset="0.0738" style="stop-color:#A46FC7"/>
					<stop  offset="0.3678" style="stop-color:#779BCA"/>
					<stop  offset="0.6306" style="stop-color:#57BBCC"/>
					<stop  offset="0.8503" style="stop-color:#43CFCE"/>
					<stop  offset="1" style="stop-color:#3CD6CE"/>
				</linearGradient>
				<path fill="url(#SVGID_12_)" d="M1075.727,82.799c-45.546,55.075,68.464,78.593,42.052,157.186
					C1161.767,153.557,1062.091,157.462,1075.727,82.799z"/>
				<linearGradient id="SVGID_13_" gradientUnits="userSpaceOnUse" x1="1059.46" y1="255.8525" x2="1152.9667" y2="79.229">
					<stop  offset="0" style="stop-color:#B063C6"/>
					<stop  offset="0.0738" style="stop-color:#A46FC7"/>
					<stop  offset="0.3678" style="stop-color:#779BCA"/>
					<stop  offset="0.6306" style="stop-color:#57BBCC"/>
					<stop  offset="0.8503" style="stop-color:#43CFCE"/>
					<stop  offset="1" style="stop-color:#3CD6CE"/>
				</linearGradient>
				<path fill="url(#SVGID_13_)" d="M1090.962,78.111c-35.054,57.477,72.757,73.102,42.05,157.187
					C1182.469,147.307,1077.324,152.774,1090.962,78.111z"/>
			</g>
		</g>
	</g>
	<g>
		<g opacity="0.1">
			<ellipse id="shadow_13_" opacity="0" fill="#F4F4F4" cx="610.598" cy="317.979" rx="107.598" ry="18.331"/>
			<ellipse opacity="0.0244" fill="#EEEEEE" cx="610.597" cy="317.979" rx="105.737" ry="17.931"/>
			<ellipse opacity="0.0488" fill="#E8E8E8" cx="610.598" cy="317.979" rx="103.876" ry="17.53"/>
			<ellipse opacity="0.0732" fill="#E2E2E2" cx="610.598" cy="317.979" rx="102.016" ry="17.129"/>
			<ellipse opacity="0.0976" fill="#DCDCDC" cx="610.598" cy="317.979" rx="100.156" ry="16.729"/>
			<ellipse opacity="0.122" fill="#D6D6D6" cx="610.598" cy="317.979" rx="98.295" ry="16.328"/>
			<ellipse opacity="0.1463" fill="#D0D0D0" cx="610.598" cy="317.979" rx="96.435" ry="15.928"/>
			<ellipse opacity="0.1707" fill="#CACACA" cx="610.598" cy="317.979" rx="94.574" ry="15.526"/>
			<ellipse opacity="0.1951" fill="#C4C4C4" cx="610.597" cy="317.979" rx="92.714" ry="15.125"/>
			<ellipse opacity="0.2195" fill="#BEBEBE" cx="610.597" cy="317.979" rx="90.853" ry="14.725"/>
			<ellipse opacity="0.2439" fill="#B8B8B8" cx="610.598" cy="317.979" rx="88.992" ry="14.323"/>
			<ellipse opacity="0.2683" fill="#B3B3B3" cx="610.598" cy="317.979" rx="87.132" ry="13.924"/>
			<ellipse opacity="0.2927" fill="#ADADAD" cx="610.598" cy="317.979" rx="85.271" ry="13.523"/>
			<ellipse opacity="0.3171" fill="#A7A7A7" cx="610.598" cy="317.979" rx="83.411" ry="13.123"/>
			<ellipse opacity="0.3415" fill="#A1A1A1" cx="610.598" cy="317.979" rx="81.551" ry="12.722"/>
			<ellipse opacity="0.3659" fill="#9B9B9B" cx="610.598" cy="317.979" rx="79.69" ry="12.32"/>
			<ellipse opacity="0.3902" fill="#959595" cx="610.597" cy="317.979" rx="77.83" ry="11.921"/>
			<ellipse opacity="0.4146" fill="#8F8F8F" cx="610.598" cy="317.979" rx="75.969" ry="11.519"/>
			<ellipse opacity="0.439" fill="#898989" cx="610.598" cy="317.979" rx="74.108" ry="11.118"/>
			<ellipse opacity="0.4634" fill="#838383" cx="610.598" cy="317.979" rx="72.248" ry="10.718"/>
			<ellipse opacity="0.4878" fill="#7D7D7D" cx="610.597" cy="317.979" rx="70.387" ry="10.317"/>
			<ellipse opacity="0.5122" fill="#777777" cx="610.598" cy="317.979" rx="68.527" ry="9.917"/>
			<ellipse opacity="0.5366" fill="#717171" cx="610.598" cy="317.979" rx="66.666" ry="9.516"/>
			<ellipse opacity="0.561" fill="#6B6B6B" cx="610.598" cy="317.979" rx="64.806" ry="9.115"/>
			<ellipse opacity="0.5854" fill="#656565" cx="610.598" cy="317.98" rx="62.945" ry="8.713"/>
			<ellipse opacity="0.6098" fill="#5F5F5F" cx="610.598" cy="317.979" rx="61.085" ry="8.313"/>
			<ellipse opacity="0.6341" fill="#595959" cx="610.597" cy="317.98" rx="59.224" ry="7.912"/>
			<ellipse opacity="0.6585" fill="#535353" cx="610.598" cy="317.979" rx="57.364" ry="7.513"/>
			<ellipse opacity="0.6829" fill="#4D4D4D" cx="610.598" cy="317.98" rx="55.503" ry="7.111"/>
			<ellipse opacity="0.7073" fill="#474747" cx="610.598" cy="317.98" rx="53.643" ry="6.71"/>
			<ellipse opacity="0.7317" fill="#414141" cx="610.598" cy="317.98" rx="51.782" ry="6.31"/>
			<ellipse opacity="0.7561" fill="#3C3C3C" cx="610.598" cy="317.98" rx="49.922" ry="5.909"/>
			<ellipse opacity="0.7805" fill="#363636" cx="610.598" cy="317.98" rx="48.061" ry="5.508"/>
			<ellipse opacity="0.8049" fill="#303030" cx="610.598" cy="317.98" rx="46.201" ry="5.107"/>
			<ellipse opacity="0.8293" fill="#2A2A2A" cx="610.598" cy="317.98" rx="44.34" ry="4.707"/>
			<ellipse opacity="0.8537" fill="#242424" cx="610.598" cy="317.98" rx="42.479" ry="4.307"/>
			<ellipse opacity="0.878" fill="#1E1E1E" cx="610.597" cy="317.98" rx="40.619" ry="3.905"/>
			<ellipse opacity="0.9024" fill="#181818" cx="610.598" cy="317.98" rx="38.759" ry="3.505"/>
			<ellipse opacity="0.9268" fill="#121212" cx="610.598" cy="317.98" rx="36.898" ry="3.104"/>
			<ellipse opacity="0.9512" fill="#0C0C0C" cx="610.598" cy="317.98" rx="35.037" ry="2.704"/>
			<ellipse opacity="0.9756" fill="#060606" cx="610.598" cy="317.98" rx="33.177" ry="2.304"/>
			<ellipse id="shadow_12_" cx="610.598" cy="317.98" rx="31.316" ry="1.902"/>
		</g>
		<g>
			<text transform="matrix(1 0 0 1 566.8003 276.8906)"><tspan x="0" y="0" fill="#929497" font-family="'BebasNeueRegular'" font-size="27.4384">spa </tspan><tspan x="48.263" y="0" fill="#76D2F1" font-family="'BebasNeueRegular'" font-size="27.4384">BEAUTY</tspan></text>
			<text transform="matrix(1 0 0 1 579.9316 289.6631)" fill="#929497" font-family="'OpenSans'" font-size="8.4426">Lorem ipsum dolor</text>
			<g>
				<linearGradient id="SVGID_14_" gradientUnits="userSpaceOnUse" x1="563.5439" y1="225.6709" x2="645.5441" y2="88.3368">
					<stop  offset="0" style="stop-color:#123B7D"/>
					<stop  offset="1" style="stop-color:#3CD6CE"/>
				</linearGradient>
				<path fill="url(#SVGID_14_)" d="M622.445,173.692c-10.588-5.81-19.559,6.544-29.559,2.427c-7.371-3.036-1.25-12.28-6.765-15.147
					c-2.954-1.536,0.221-3.971,0.221-3.971c-5-2.059-2.794-5.441-2.794-5.441c5.074-8.677-11.103-6.397-4.265-13.235
					c6.838-6.838,6.25-13.897,6.25-13.897c-3.382,0.074-6.25-1.544-6.25-1.544c1.691,0.589,4.632,0,4.632,0
					c-3.309-1.323-4.191-3.235-4.191-3.235c3.309,2.574,6.03,1.618,6.03,1.618c-1.985-9.485-1.838-18.456-1.838-18.456
					c-0.294-12.5,12.535-21.71,12.535-21.71c-40.852,10.161-36.29,59.495-36.29,59.495c8.664,49.529,52.579,45.744,61.108,70.206
					c4.536,13.009-6.862,20.785-6.862,20.785c-16.471,10.686-23.53-1.962-23.53-1.962c-7.059-13.039,2.255-17.353,2.255-17.353
					c10.49-5.294,15,5.979,15,5.979c-3.039-13.038-16.373-9.312-16.373-9.312c-9.607,2.941-8.529,15.294-8.529,15.294
					c1.568,18.039,22.549,18.039,22.549,18.039c22.255,0,27.059-18.235,27.059-18.235
					C644.356,187.663,622.445,173.692,622.445,173.692z"/>
				<linearGradient id="SVGID_15_" gradientUnits="userSpaceOnUse" x1="570.2476" y1="234.1572" x2="656.8756" y2="89.0723">
					<stop  offset="0" style="stop-color:#123B7D"/>
					<stop  offset="1" style="stop-color:#3CD6CE"/>
				</linearGradient>
				<path fill="url(#SVGID_15_)" d="M608.733,79.804c-0.616,0.048-1.136,0.009-2.136,0.026v-0.026
					c-22,19.166-9.994,41.421-9.994,41.421c-0.574-16.433,9.632-22.849,9.632-22.849c-20.591,40.733,19.071,46.457,19.071,46.457
					c-28.188-11.515-6.685-40.911-6.685-40.911c59.807,21.761,27.249,91.472,27.249,91.472
					c16.223-11.54,27.394-33.708,28.394-53.799C676.012,106.474,655.931,76.144,608.733,79.804z"/>
			</g>
		</g>
	</g>
</g>
</svg>
